<?xml version="1.0" standalone="no"?>
<!DOCTYPE svg PUBLIC "-//W3C//DTD SVG 20010904//EN"
 "http://www.w3.org/TR/2001/REC-SVG-20010904/DTD/svg10.dtd">
<svg version="1.0" xmlns="http://www.w3.org/2000/svg"
 width="1500.000000pt" height="1500.000000pt" viewBox="0 0 1500.000000 1500.000000"
 preserveAspectRatio="xMidYMid meet">
<metadata>
Created by potrace 1.11, written by Peter Selinger 2001-2013
</metadata>
<g transform="translate(0.000000,1500.000000) scale(0.100000,-0.100000)"
fill="#000000" stroke="none">
<path d="M7169 14966 c-2 -2 -53 -7 -114 -10 -158 -9 -301 -21 -380 -32 -16
-2 -52 -6 -80 -9 -27 -3 -61 -7 -75 -10 -14 -2 -45 -7 -70 -10 -43 -6 -200
-30 -265 -41 -132 -22 -471 -98 -605 -135 -41 -11 -82 -22 -90 -24 -114 -25
-618 -195 -717 -240 -17 -8 -36 -15 -42 -15 -6 0 -19 -4 -29 -10 -17 -9 -36
-18 -177 -78 -374 -159 -879 -436 -1205 -661 -224 -154 -378 -269 -547 -408
-264 -216 -626 -559 -820 -778 -133 -149 -140 -158 -360 -429 -86 -106 -310
-425 -418 -596 -70 -109 -95 -151 -95 -157 0 -3 -6 -14 -14 -22 -36 -42 -279
-504 -375 -713 -40 -88 -150 -349 -157 -373 -1 -5 -23 -63 -48 -129 -52 -135
-197 -586 -210 -653 -2 -10 -9 -38 -16 -63 -7 -25 -13 -52 -15 -60 -2 -8 -11
-44 -20 -80 -9 -36 -19 -76 -21 -90 -2 -14 -7 -36 -10 -50 -3 -14 -8 -34 -10
-45 -28 -118 -79 -416 -90 -514 -2 -24 -6 -46 -8 -50 -2 -3 -7 -40 -11 -80 -4
-41 -8 -83 -10 -93 -2 -10 -7 -55 -10 -101 -4 -45 -8 -93 -11 -107 -25 -157
-25 -1086 0 -1215 2 -11 7 -63 10 -115 4 -52 9 -104 11 -115 2 -11 7 -45 10
-75 3 -30 7 -66 9 -80 3 -14 7 -45 10 -70 3 -25 8 -54 10 -65 2 -11 6 -41 10
-66 8 -53 14 -93 21 -129 3 -14 8 -43 11 -65 3 -22 8 -43 10 -46 2 -3 6 -21 9
-40 3 -19 8 -45 10 -59 3 -14 7 -36 10 -50 59 -313 272 -993 405 -1295 9 -22
30 -69 45 -105 163 -381 388 -795 637 -1169 92 -138 289 -414 308 -431 3 -3
21 -25 40 -50 31 -41 220 -269 245 -296 5 -6 44 -49 85 -95 188 -211 514 -525
747 -719 177 -148 412 -329 534 -411 20 -13 83 -55 140 -94 57 -38 112 -74
121 -80 10 -5 66 -40 125 -76 371 -228 771 -425 1208 -595 195 -76 613 -211
755 -244 19 -5 109 -26 200 -48 153 -37 336 -76 420 -88 19 -3 42 -7 50 -9 8
-3 67 -12 130 -20 63 -9 126 -18 140 -20 14 -3 57 -8 95 -11 39 -3 72 -8 75
-9 3 -2 41 -6 85 -10 44 -4 96 -9 115 -10 283 -27 966 -27 1235 0 22 3 68 7
101 10 34 2 77 7 95 9 19 3 61 8 94 11 33 3 146 20 250 36 248 40 239 38 320
56 39 8 84 17 100 19 17 3 48 10 70 16 22 5 47 11 55 13 28 6 265 65 295 75
17 4 71 21 120 35 645 190 1257 466 1837 826 155 97 216 138 378 253 93 66
282 206 290 215 3 4 39 33 80 66 89 70 211 173 225 189 6 6 44 40 85 76 81 69
447 433 520 516 25 28 71 79 102 115 138 157 364 443 476 604 146 209 335 506
412 650 18 33 47 87 66 120 154 274 372 772 495 1135 118 345 253 879 293
1155 4 23 8 52 11 65 5 24 31 216 41 295 2 22 6 56 9 75 9 64 20 200 32 371
16 239 8 922 -12 1074 -3 17 -7 62 -10 100 -3 39 -7 86 -10 105 -2 19 -7 58
-10 85 -7 60 -52 367 -60 410 -5 24 -56 276 -70 345 -56 268 -234 839 -345
1105 -4 11 -25 61 -45 110 -203 492 -487 1004 -808 1455 -74 104 -200 273
-208 280 -4 3 -35 41 -69 85 -71 88 -65 81 -216 255 -101 117 -463 486 -564
575 -79 71 -204 179 -254 220 -27 22 -54 45 -60 50 -104 96 -451 346 -746 537
-431 280 -1013 557 -1585 754 -421 145 -989 278 -1410 329 -27 4 -61 8 -75 10
-57 9 -188 21 -315 31 -49 3 -108 8 -130 10 -53 6 -801 15 -806 10z"/>
</g>
</svg>
